<svg width="150" height="40" xmlns="http://www.w3.org/2000/svg" viewBox="0 0 347.2 370"><defs><style>.cls-1{fill:#ffc300;}.cls-2{fill:#d7d7d7;}</style></defs><g id="Capa_2" data-name="Capa 2"><g id="Capa_1-2" data-name="Capa 1"><path class="cls-1" d="M346.86,27c-6.73-15.8-23.1-27-42.26-27C286,0,270.07,10.51,263,25.53c-.1.53-.14.9-.14.9.05.19.12.36.16.55h-.28V55.42l-1.27,1.32C243.78,25.8,204,6.22,162.32,6.22,71.37,5.59,0,61.8,0,169.18,0,278.42,68.2,335.26,160.41,334.63c34.75-.63,83.37-18.31,101.06-54.94l1.19-2.28a.1.1,0,0,1,0,0,1.42,1.42,0,0,0,.09.27v-.43l2.85-5.39A45.8,45.8,0,0,1,304.64,251c19.31,0,35.8,10.84,42.56,26.79V27ZM169.25,263.89C118.1,263.89,77,228.53,77,169.18s41.06-94.11,92.21-94.11c121.27,0,121.27,188.82,0,188.82"></path><path class="cls-2" d="M285.26,337.1c11.48,23.62,20,32.9,20,32.9,6.62-6.64,13.31-18.46,19.35-31.48a34,34,0,0,0-39.39-1.42"></path></g></g></svg>